<?xml version="1.0" encoding="UTF-8" standalone="no"?> <svg id="Layer_1" data-name="Layer 1" xmlns="http://www.w3.org/2000/svg" viewBox="0 0 64 64"><defs><style>.cls-1{fill:#ff2c00;}.cls-2{fill:#ff7d00;}</style></defs><title>paper_2</title><path class="cls-1" d="M17,61a4,4,0,0,1-4-4V10a3,3,0,0,0-.41-1.5,3.06,3.06,0,0,0-.48-.64A3,3,0,0,0,10,7a1,1,0,0,1,0-2H46a5,5,0,0,1,5,5V54a1,1,0,0,1-1,1H21v2A4,4,0,0,1,17,61ZM14,7q.18.25.33.51A5,5,0,0,1,15,10V57a2,2,0,0,0,4,0V54a1,1,0,0,1,1-1H49V10a3,3,0,0,0-3-3Z"/><path class="cls-1" d="M32,26a1,1,0,0,1-.71-.29l-8-8a1,1,0,0,1,0-1.42l8-8a1,1,0,0,1,1.42,0l8,8a1,1,0,0,1,0,1.42l-8,8A1,1,0,0,1,32,26Zm-6.59-9L32,23.59,38.59,17,32,10.41Z"/><path class="cls-2" d="M32,20a3,3,0,1,1,3-3A3,3,0,0,1,32,20Zm0-4a1,1,0,1,0,1,1A1,1,0,0,0,32,16Z"/><path class="cls-1" d="M38,31H22a1,1,0,0,1,0-2H38a1,1,0,0,1,0,2Z"/><path class="cls-1" d="M44,37H22a1,1,0,0,1,0-2H44a1,1,0,0,1,0,2Z"/><path class="cls-1" d="M44,43H22a1,1,0,0,1,0-2H44a1,1,0,0,1,0,2Z"/><path class="cls-1" d="M44,49H22a1,1,0,0,1,0-2H44a1,1,0,0,1,0,2Z"/><path class="cls-1" d="M14,17H6a1,1,0,0,1-1-1V10a5,5,0,0,1,10,0v6A1,1,0,0,1,14,17ZM7,15h6V10a3,3,0,0,0-.41-1.5,3.06,3.06,0,0,0-.48-.64A3,3,0,0,0,7,10Z"/><path class="cls-1" d="M51,61H17a1,1,0,0,1,0-2,2,2,0,0,0,2-2V54a1,1,0,0,1,1-1H54a1,1,0,0,1,1,1v3A4,4,0,0,1,51,61ZM20.46,59H51a2,2,0,0,0,2-2V55H21v2A4,4,0,0,1,20.46,59Z"/></svg>